<?xml version="1.0" encoding="UTF-8" standalone="no"?>
<!-- Created with Inkscape (http://www.inkscape.org/) -->

<svg
   xmlns:dc="http://purl.org/dc/elements/1.1/"
   xmlns:cc="http://creativecommons.org/ns#"
   xmlns:rdf="http://www.w3.org/1999/02/22-rdf-syntax-ns#"
   xmlns:svg="http://www.w3.org/2000/svg"
   xmlns="http://www.w3.org/2000/svg"
   xmlns:sodipodi="http://sodipodi.sourceforge.net/DTD/sodipodi-0.dtd"
   xmlns:inkscape="http://www.inkscape.org/namespaces/inkscape"
   width="151.78711"
   height="139.51172"
   id="svg2"
   version="1.1"
   inkscape:version="0.47 r22583"
   sodipodi:docname="Nouveau document 1">
  <defs
     id="defs4">
    <inkscape:perspective
       sodipodi:type="inkscape:persp3d"
       inkscape:vp_x="0 : 526.18109 : 1"
       inkscape:vp_y="0 : 1000 : 0"
       inkscape:vp_z="744.09448 : 526.18109 : 1"
       inkscape:persp3d-origin="372.04724 : 350.78739 : 1"
       id="perspective10" />
    <inkscape:perspective
       id="perspective2824"
       inkscape:persp3d-origin="0.5 : 0.33333333 : 1"
       inkscape:vp_z="1 : 0.5 : 1"
       inkscape:vp_y="0 : 1000 : 0"
       inkscape:vp_x="0 : 0.5 : 1"
       sodipodi:type="inkscape:persp3d" />
    <inkscape:perspective
       id="perspective2902"
       inkscape:persp3d-origin="0.5 : 0.33333333 : 1"
       inkscape:vp_z="1 : 0.5 : 1"
       inkscape:vp_y="0 : 1000 : 0"
       inkscape:vp_x="0 : 0.5 : 1"
       sodipodi:type="inkscape:persp3d" />
    <inkscape:perspective
       id="perspective2902-1"
       inkscape:persp3d-origin="0.5 : 0.33333333 : 1"
       inkscape:vp_z="1 : 0.5 : 1"
       inkscape:vp_y="0 : 1000 : 0"
       inkscape:vp_x="0 : 0.5 : 1"
       sodipodi:type="inkscape:persp3d" />
  </defs>
  <sodipodi:namedview
     id="base"
     pagecolor="#ffffff"
     bordercolor="#666666"
     borderopacity="1.0"
     inkscape:pageopacity="0.0"
     inkscape:pageshadow="2"
     inkscape:zoom="2.8"
     inkscape:cx="73.006782"
     inkscape:cy="76.683527"
     inkscape:document-units="px"
     inkscape:current-layer="layer1"
     showgrid="false"
     inkscape:window-width="1366"
     inkscape:window-height="721"
     inkscape:window-x="0"
     inkscape:window-y="0"
     inkscape:window-maximized="1" />
  <metadata
     id="metadata7">
    <rdf:RDF>
      <cc:Work
         rdf:about="">
        <dc:format>image/svg+xml</dc:format>
        <dc:type
           rdf:resource="http://purl.org/dc/dcmitype/StillImage" />
        <dc:title></dc:title>
      </cc:Work>
    </rdf:RDF>
  </metadata>
  <g
     inkscape:label="Calque 1"
     inkscape:groupmode="layer"
     id="layer1"
     transform="translate(-299.10644,-462.60632)">
    <g
       transform="matrix(1.25,0,0,-1.25,297.26367,603.24304)"
       inkscape:label="inst_vc"
       id="g2826">
      <g
         transform="scale(0.1,0.1)"
         id="g2828">
        <g
           transform="scale(10,10)"
           id="g2830">
          <text
             id="text2832"
             transform="matrix(1,0,0,-1,0.9,36.9)">
            <tspan
               id="tspan2834"
               y="0"
               x="0"
               style="font-size:12px;font-variant:normal;font-weight:normal;writing-mode:lr-tb;fill:#000000;fill-opacity:1;fill-rule:nonzero;stroke:none;font-family:Times New Roman;-inkscape-font-specification:Times-Roman">5</tspan>
          </text>
        </g>
        <path
           id="path2836"
           style="fill:#000000;fill-opacity:1;fill-rule:evenodd;stroke:none"
           d="m 972.602,954 c 0,-35.125 -28.477,-63.602 -63.602,-63.602 -35.125,0 -63.602,28.477 -63.602,63.602 0,35.125 28.477,63.6 63.602,63.6 35.125,0 63.602,-28.475 63.602,-63.6" />
        <path
           id="path2838"
           style="fill:none;stroke:#000000;stroke-width:4.5;stroke-linecap:butt;stroke-linejoin:miter;stroke-miterlimit:10;stroke-opacity:1;stroke-dasharray:none"
           d="m 972.602,954 c 0,-35.125 -28.477,-63.602 -63.602,-63.602 -35.125,0 -63.602,28.477 -63.602,63.602 0,35.125 28.477,63.6 63.602,63.6 35.125,0 63.602,-28.475 63.602,-63.6 z" />
        <path
           id="path2840"
           style="fill:#000000;fill-opacity:1;fill-rule:evenodd;stroke:none"
           d="m 1152.6,414 c 0,-35.125 -28.48,-63.602 -63.6,-63.602 -35.12,0 -63.6,28.477 -63.6,63.602 0,35.125 28.48,63.602 63.6,63.602 35.12,0 63.6,-28.477 63.6,-63.602" />
        <path
           id="path2842"
           style="fill:none;stroke:#000000;stroke-width:4.5;stroke-linecap:butt;stroke-linejoin:miter;stroke-miterlimit:10;stroke-opacity:1;stroke-dasharray:none"
           d="m 1152.6,414 c 0,-35.125 -28.48,-63.602 -63.6,-63.602 -35.12,0 -63.6,28.477 -63.6,63.602 0,35.125 28.48,63.602 63.6,63.602 35.12,0 63.6,-28.477 63.6,-63.602 z" />
        <path
           id="path2844"
           style="fill:#000000;fill-opacity:1;fill-rule:evenodd;stroke:none"
           d="m 252.602,414 c 0,-35.125 -28.477,-63.602 -63.602,-63.602 -35.125,0 -63.602,28.477 -63.602,63.602 0,35.125 28.477,63.602 63.602,63.602 35.125,0 63.602,-28.477 63.602,-63.602" />
        <path
           id="path2846"
           style="fill:none;stroke:#000000;stroke-width:4.5;stroke-linecap:butt;stroke-linejoin:miter;stroke-miterlimit:10;stroke-opacity:1;stroke-dasharray:none"
           d="m 252.602,414 c 0,-35.125 -28.477,-63.602 -63.602,-63.602 -35.125,0 -63.602,28.477 -63.602,63.602 0,35.125 28.477,63.602 63.602,63.602 35.125,0 63.602,-28.477 63.602,-63.602 z" />
        <path
           id="path2848"
           style="fill:#000000;fill-opacity:1;fill-rule:evenodd;stroke:none"
           d="m 702.602,189 c 0,-35.125 -28.477,-63.602 -63.602,-63.602 -35.125,0 -63.602,28.477 -63.602,63.602 0,35.125 28.477,63.602 63.602,63.602 35.125,0 63.602,-28.477 63.602,-63.602" />
        <path
           id="path2850"
           style="fill:none;stroke:#000000;stroke-width:4.5;stroke-linecap:butt;stroke-linejoin:miter;stroke-miterlimit:10;stroke-opacity:1;stroke-dasharray:none"
           d="m 702.602,189 c 0,-35.125 -28.477,-63.602 -63.602,-63.602 -35.125,0 -63.602,28.477 -63.602,63.602 0,35.125 28.477,63.602 63.602,63.602 35.125,0 63.602,-28.477 63.602,-63.602 z" />
        <path
           id="path2852"
           style="fill:none;stroke:#000000;stroke-width:9;stroke-linecap:butt;stroke-linejoin:miter;stroke-miterlimit:10;stroke-opacity:1;stroke-dasharray:none"
           d="M 369,954 909,954 1089,414 639,189 189,414 369,954 z" />
        <g
           transform="scale(10,10)"
           id="g2854">
          <text
             id="text2856"
             transform="matrix(1,0,0,-1,32.4,104.4)">
            <tspan
               id="tspan2858"
               sodipodi:role="line"
               y="0"
               x="0 63"
               style="font-size:12px;font-variant:normal;font-weight:normal;writing-mode:lr-tb;fill:#000000;fill-opacity:1;fill-rule:nonzero;stroke:none;font-family:Times New Roman;-inkscape-font-specification:Times-Roman">12</tspan>
            <tspan
               id="tspan2860"
               y="58.5"
               x="85.5"
               style="font-size:12px;font-variant:normal;font-weight:normal;writing-mode:lr-tb;fill:#000000;fill-opacity:1;fill-rule:nonzero;stroke:none;font-family:Times New Roman;-inkscape-font-specification:Times-Roman">3</tspan>
            <tspan
               id="tspan2862"
               y="103.5"
               x="36"
               style="font-size:12px;font-variant:normal;font-weight:normal;writing-mode:lr-tb;fill:#000000;fill-opacity:1;fill-rule:nonzero;stroke:none;font-family:Times New Roman;-inkscape-font-specification:Times-Roman">4</tspan>
          </text>
        </g>
        <path
           id="path2864"
           style="fill:#000000;fill-opacity:1;fill-rule:evenodd;stroke:none"
           d="m 432.602,954 c 0,-35.125 -28.477,-63.602 -63.602,-63.602 -35.125,0 -63.602,28.477 -63.602,63.602 0,35.125 28.477,63.6 63.602,63.6 35.125,0 63.602,-28.475 63.602,-63.6" />
        <path
           id="path2866"
           style="fill:none;stroke:#000000;stroke-width:4.5;stroke-linecap:butt;stroke-linejoin:miter;stroke-miterlimit:10;stroke-opacity:1;stroke-dasharray:none"
           d="m 432.602,954 c 0,-35.125 -28.477,-63.602 -63.602,-63.602 -35.125,0 -63.602,28.477 -63.602,63.602 0,35.125 28.477,63.6 63.602,63.6 35.125,0 63.602,-28.475 63.602,-63.6 z" />
      </g>
    </g>
    <path
       sodipodi:type="arc"
       style="fill:#00ff00;fill-opacity:1;stroke:#008000"
       id="path2890"
       sodipodi:cx="21.071428"
       sodipodi:cy="89.690292"
       sodipodi:rx="7.5"
       sodipodi:ry="8.0357151"
       d="m 28.571428,89.690292 a 7.5,8.0357151 0 1 1 -15,0 7.5,8.0357151 0 1 1 15,0 z"
       transform="matrix(1.1587056,0,0,1.0814586,297.01229,454.58599)" />
    <path
       sodipodi:type="arc"
       style="fill:#00ff00;fill-opacity:1;stroke:#008000"
       id="path2890-7"
       sodipodi:cx="21.071428"
       sodipodi:cy="89.690292"
       sodipodi:rx="7.5"
       sodipodi:ry="8.0357151"
       d="m 28.571428,89.690292 a 7.5,8.0357151 0 1 1 -15,0 7.5,8.0357151 0 1 1 15,0 z"
       transform="matrix(1.1587056,0,0,1.0814586,408.61943,454.76456)" />
    <path
       sodipodi:type="arc"
       style="fill:#00ff00;fill-opacity:1;stroke:#008000"
       id="path2890-1"
       sodipodi:cx="21.071428"
       sodipodi:cy="89.690292"
       sodipodi:rx="7.5"
       sodipodi:ry="8.0357151"
       d="m 28.571428,89.690292 a 7.5,8.0357151 0 1 1 -15,0 7.5,8.0357151 0 1 1 15,0 z"
       transform="matrix(1.1587056,0,0,1.0814586,317.90515,387.26456)" />
  </g>
</svg>
